<svg width="184" height="124" viewBox="0 0 184 124" fill="none" xmlns="http://www.w3.org/2000/svg">
<path opacity="0.8" d="M172.465 42.5341L135.319 66.5943C134.232 67.3012 132.909 67.5471 131.64 67.2781C130.371 67.0092 129.262 66.2472 128.555 65.16C127.848 64.0727 127.602 62.7492 127.871 61.4806C128.14 60.212 128.902 59.1022 129.989 58.3953L167.134 34.3351C168.222 33.6283 169.545 33.3823 170.814 33.6513C172.082 33.9203 173.192 34.6822 173.899 35.7695C174.606 36.8567 174.852 38.1802 174.583 39.4488C174.314 40.7175 173.552 41.8273 172.465 42.5341V42.5341Z" fill="#389BF3"/>
<path opacity="0.8" d="M122.828 74.8095L97.9903 90.9483C96.9006 91.6552 95.5747 91.9002 94.3044 91.6294C93.034 91.3587 91.9233 90.5944 91.2164 89.5047C90.5096 88.415 90.2646 87.0891 90.5353 85.8188C90.806 84.5484 91.5703 83.4377 92.66 82.7308L117.479 66.6105C118.017 66.2605 118.619 66.02 119.251 65.9026C119.882 65.7853 120.53 65.7935 121.158 65.9267C121.787 66.0599 122.382 66.3155 122.912 66.6789C123.441 67.0423 123.894 67.5065 124.244 68.0448C124.594 68.5832 124.834 69.1852 124.952 69.8165C125.069 70.4478 125.061 71.0961 124.928 71.7242C124.794 72.3524 124.539 72.9481 124.175 73.4775C123.812 74.0069 123.348 74.4595 122.809 74.8095H122.828Z" fill="#FF9D23"/>
<path d="M155.031 36.8682L117.886 60.9284C117.347 61.2784 116.745 61.519 116.114 61.6363C115.483 61.7536 114.835 61.7454 114.206 61.6123C113.578 61.4791 112.983 61.2235 112.453 60.86C111.924 60.4966 111.471 60.0324 111.121 59.4941C110.771 58.9557 110.531 58.3537 110.413 57.7224C110.296 57.0911 110.304 56.4429 110.437 55.8147C110.571 55.1865 110.826 54.5908 111.19 54.0614C111.553 53.532 112.017 53.0794 112.556 52.7295L149.701 28.6692C150.789 28.0442 152.075 27.8601 153.295 28.1547C154.515 28.4493 155.576 29.2003 156.258 30.2531C156.941 31.306 157.195 32.5805 156.966 33.8145C156.738 35.0484 156.046 36.1479 155.031 36.8867V36.8682Z" fill="#AA7DFF"/>
<path d="M105.393 69.1278L80.5557 85.2852C80.017 85.6775 79.4041 85.956 78.7542 86.1035C78.1044 86.2511 77.4313 86.2646 76.776 86.1434C76.1207 86.0222 75.497 85.7687 74.943 85.3984C74.3889 85.0281 73.9161 84.5488 73.5535 83.9897C73.1909 83.4306 72.9459 82.8035 72.8337 82.1466C72.7215 81.4898 72.7443 80.8169 72.9008 80.1691C73.0572 79.5214 73.3441 78.9123 73.7437 78.379C74.1434 77.8458 74.6476 77.3996 75.2254 77.0677L100.063 60.9289C101.15 60.222 102.474 59.976 103.742 60.245C105.011 60.514 106.121 61.276 106.828 62.3632C107.534 63.4505 107.78 64.774 107.511 66.0426C107.242 67.3112 106.481 68.421 105.393 69.1278V69.1278Z" fill="#389BF3"/>
<path d="M166.228 29.5771L166.006 29.7251C165.468 30.0751 164.866 30.3156 164.234 30.433C163.603 30.5503 162.955 30.5421 162.327 30.4089C161.698 30.2758 161.103 30.0201 160.573 29.6567C160.044 29.2933 159.591 28.8291 159.241 28.2908C158.891 27.7524 158.651 27.1504 158.533 26.5191C158.416 25.8878 158.424 25.2395 158.558 24.6114C158.691 23.9832 158.946 23.3875 159.31 22.8581C159.673 22.3287 160.137 21.8761 160.676 21.5261L160.898 21.3781C161.985 20.6712 163.309 20.4253 164.577 20.6943C165.846 20.9633 166.956 21.7252 167.662 22.8124C168.369 23.8997 168.615 25.2232 168.346 26.4918C168.077 27.7604 167.315 28.8702 166.228 29.5771V29.5771Z" fill="#FF9D23"/>
<path opacity="0.5" d="M170.578 60.7802L133.433 84.8404C132.345 85.5472 131.022 85.7932 129.753 85.5242C128.485 85.2552 127.375 84.4933 126.668 83.406C125.961 82.3188 125.715 80.9953 125.984 79.7267C126.253 78.458 127.015 77.3482 128.102 76.6414L165.248 52.5812C165.786 52.2312 166.388 51.9907 167.019 51.8733C167.651 51.756 168.299 51.7642 168.927 51.8974C169.555 52.0306 170.151 52.2862 170.68 52.6496C171.21 53.013 171.662 53.4772 172.012 54.0155C172.362 54.5539 172.603 55.1559 172.72 55.7872C172.838 56.4185 172.829 57.0668 172.696 57.6949C172.563 58.3231 172.307 58.9188 171.944 59.4482C171.581 59.9776 171.116 60.4302 170.578 60.7802V60.7802Z" fill="#389BF3"/>
<path opacity="0.5" d="M120.94 93.0575L96.1027 109.196C95.0154 109.903 93.6919 110.149 92.4233 109.88C91.1547 109.611 90.0449 108.849 89.338 107.762C88.6312 106.675 88.3852 105.351 88.6542 104.083C88.9232 102.814 89.6851 101.704 90.7724 100.997L115.628 84.8585C116.167 84.5085 116.769 84.268 117.4 84.1507C118.031 84.0334 118.68 84.0415 119.308 84.1747C119.936 84.3079 120.532 84.5635 121.061 84.9269C121.591 85.2904 122.043 85.7545 122.393 86.2929C122.743 86.8312 122.984 87.4333 123.101 88.0646C123.218 88.6959 123.21 89.3441 123.077 89.9723C122.944 90.6004 122.688 91.1962 122.325 91.7256C121.961 92.2549 121.497 92.7075 120.959 93.0575H120.94Z" fill="#AA7DFF"/>
<path opacity="0.5" d="M181.776 53.5087L181.554 53.6568C181.015 54.0067 180.413 54.2473 179.782 54.3646C179.151 54.4819 178.503 54.4738 177.874 54.3406C176.606 54.0716 175.496 53.3096 174.789 52.2224C174.082 51.1351 173.836 49.8116 174.105 48.543C174.374 47.2744 175.136 46.1646 176.224 45.4578L176.446 45.3097C176.984 44.9597 177.586 44.7192 178.217 44.6019C178.849 44.4845 179.497 44.4927 180.125 44.6259C180.753 44.7591 181.349 45.0147 181.878 45.3781C182.408 45.7416 182.86 46.2057 183.21 46.7441C183.56 47.2824 183.801 47.8844 183.918 48.5157C184.035 49.147 184.027 49.7953 183.894 50.4234C183.761 51.0516 183.505 51.6474 183.142 52.1767C182.778 52.7061 182.314 53.1587 181.776 53.5087V53.5087Z" fill="#FF9D23"/>
<path d="M135.858 1H49.9072V122.023H135.858V1Z" fill="white"/>
<path d="M125.234 112.789V88.248" stroke="#732E54" stroke-miterlimit="10"/>
<path opacity="0.5" d="M125.234 84.7298V76.7344" stroke="#732E54" stroke-miterlimit="10"/>
<path opacity="0.2" d="M125.234 73.293V67.1484" stroke="#732E54" stroke-miterlimit="10"/>
<path d="M129.398 1.29688H54.5524C51.4859 1.29688 49 3.78275 49 6.84924V116.767C49 119.834 51.4859 122.32 54.5524 122.32H129.398C132.465 122.32 134.951 119.834 134.951 116.767V6.84924C134.951 3.78275 132.465 1.29688 129.398 1.29688Z" stroke="#732E54" stroke-width="2" stroke-miterlimit="10"/>
<path d="M72.7822 19.9531H114.092" stroke="#732E54" stroke-width="2" stroke-miterlimit="10" stroke-linecap="round"/>
<path d="M72.7822 30.2793H86.33" stroke="#732E54" stroke-width="2" stroke-miterlimit="10" stroke-linecap="round"/>
<path d="M72.7822 50.9531H86.33" stroke="#732E54" stroke-width="2" stroke-miterlimit="10" stroke-linecap="round"/>
<path d="M72.7822 40.6074H110.39" stroke="#732E54" stroke-width="2" stroke-miterlimit="10" stroke-linecap="round"/>
<path d="M72.2832 108.309H111.205" stroke="#732E54" stroke-width="2" stroke-miterlimit="10" stroke-linecap="round"/>
<path d="M142.317 15.3631C142.989 15.7599 143.577 16.2858 144.046 16.9106C144.514 17.5353 144.855 18.2466 145.047 19.0035C145.24 19.7604 145.281 20.5479 145.168 21.3208C145.055 22.0936 144.791 22.8364 144.389 23.5066L101.062 96.15L89.8652 104.553L90.8462 90.1349L134.136 17.4175C134.536 16.7432 135.066 16.1547 135.694 15.686C136.323 15.2173 137.038 14.8777 137.798 14.6867C138.559 14.4958 139.35 14.4572 140.125 14.5733C140.901 14.6894 141.645 14.9578 142.317 15.3631V15.3631Z" fill="url(#paint0_linear)"/>
<path d="M101.693 94.1328L90.6064 102.443L91.5874 87.9512L101.693 94.1328Z" fill="white"/>
<path d="M142.094 15.2152C143.447 16.0267 144.424 17.3415 144.809 18.8716C145.194 20.4016 144.956 22.0219 144.149 23.3772L101.784 94.4104L89.4395 104.294L91.5679 88.2843L133.932 17.2696C134.744 15.9165 136.059 14.9404 137.589 14.5553C139.119 14.1702 140.739 14.4075 142.094 15.2152V15.2152Z" stroke="#732E54" stroke-width="2" stroke-miterlimit="10"/>
<defs>
<linearGradient id="paint0_linear" x1="120.94" y1="62.8338" x2="110.719" y2="56.7385" gradientUnits="userSpaceOnUse">
<stop offset="0.04" stop-color="#F27B40"/>
<stop offset="1" stop-color="#EC697D"/>
</linearGradient>
</defs>
</svg>
