<svg width="124" height="134" viewBox="0 0 124 134" fill="none" xmlns="http://www.w3.org/2000/svg">
<path d="M59.96 11.9551V6" stroke="#732E54" stroke-width="2" stroke-miterlimit="10" stroke-linecap="round"/>
<path d="M35.9678 12.4062L39.4372 16.7042" stroke="#732E54" stroke-width="2" stroke-miterlimit="10" stroke-linecap="round"/>
<path d="M84.1085 12.4062L80.6562 16.7042" stroke="#732E54" stroke-width="2" stroke-miterlimit="10" stroke-linecap="round"/>
<path opacity="0.8" d="M111.674 59.1472L77.0313 81.6729C76.0198 82.2295 74.8348 82.3815 73.7156 82.098C72.5964 81.8146 71.6266 81.117 71.0019 80.1461C70.3773 79.1752 70.1445 78.0033 70.3505 76.8674C70.5565 75.7314 71.186 74.716 72.1119 74.0263L106.634 51.5006C107.136 51.1742 107.697 50.9499 108.286 50.8404C108.875 50.731 109.48 50.7386 110.065 50.8629C110.651 50.9871 111.207 51.2255 111.701 51.5644C112.194 51.9034 112.616 52.3363 112.943 52.8383C113.269 53.3404 113.494 53.9019 113.603 54.4907C113.712 55.0794 113.705 55.684 113.581 56.2698C113.456 56.8557 113.218 57.4113 112.879 57.905C112.54 58.3987 112.107 58.8208 111.605 59.1472H111.674Z" fill="#389BF3"/>
<path opacity="0.8" d="M65.3801 89.2488L42.2158 104.387C41.7137 104.713 41.1522 104.937 40.5635 105.047C39.9747 105.156 39.3701 105.149 38.7843 105.025C37.6011 104.774 36.5661 104.063 35.9069 103.049C35.2477 102.035 35.0182 100.801 35.2691 99.6175C35.52 98.4344 36.2306 97.3993 37.2446 96.7401L60.4089 81.6022C61.4229 80.943 62.6573 80.7136 63.8404 80.9644C65.0236 81.2153 66.0586 81.9259 66.7178 82.9399C67.377 83.9539 67.6065 85.1883 67.3556 86.3714C67.1047 87.5546 66.3941 88.5896 65.3801 89.2488Z" fill="#FF9D23"/>
<path d="M95.4143 53.864L60.7714 76.3033C60.2693 76.6298 59.7079 76.8541 59.1191 76.9635C58.5303 77.0729 57.9258 77.0653 57.3399 76.9411C56.7541 76.8169 56.1985 76.5785 55.7047 76.2395C55.211 75.9006 54.7889 75.4677 54.4625 74.9656C54.1361 74.4635 53.9118 73.9021 53.8024 73.3133C53.6929 72.7245 53.7006 72.1199 53.8248 71.5341C53.949 70.9483 54.1874 70.3926 54.5263 69.8989C54.8653 69.4052 55.2982 68.9831 55.8003 68.6567L90.4259 46.2001C91.4418 45.5806 92.659 45.3814 93.8194 45.6446C94.9798 45.9079 95.9919 46.6129 96.641 47.6101C97.2901 48.6074 97.525 49.8182 97.296 50.9858C97.067 52.1534 96.392 53.1859 95.4143 53.864V53.864Z" fill="#AA7DFF"/>
<path d="M49.1027 83.95L25.9557 99.0189C24.9398 99.6383 23.7225 99.8376 22.5621 99.5743C21.4018 99.3111 20.3897 98.606 19.7406 97.6088C19.0915 96.6116 18.8565 95.4007 19.0855 94.2331C19.3146 93.0655 19.9895 92.0331 20.9672 91.355L44.1315 76.3033C44.6336 75.9769 45.1951 75.7526 45.7839 75.6432C46.3726 75.5338 46.9772 75.5414 47.563 75.6656C48.1489 75.7898 48.7045 76.0282 49.1982 76.3672C49.6919 76.7061 50.114 77.139 50.4404 77.6411C50.7668 78.1432 50.9912 78.7046 51.1006 79.2934C51.21 79.8822 51.2024 80.4867 51.0782 81.0726C50.954 81.6584 50.7156 82.2141 50.3766 82.7078C50.0377 83.2015 49.6048 83.6236 49.1027 83.95Z" fill="#389BF3"/>
<path d="M105.858 47.0652L105.651 47.2033C105.149 47.5309 104.587 47.7563 103.998 47.8668C103.409 47.9773 102.804 47.9706 102.217 47.8472C101.63 47.7238 101.074 47.486 100.579 47.1475C100.084 46.809 99.661 46.3763 99.3334 45.8742C99.0059 45.3721 98.7805 44.8105 98.67 44.2212C98.5595 43.632 98.5662 43.0268 98.6896 42.4402C98.813 41.8535 99.0508 41.297 99.3893 40.8022C99.7278 40.3075 100.16 39.8842 100.663 39.5567L100.887 39.4186C101.901 38.7594 103.135 38.53 104.318 38.7808C105.502 39.0317 106.537 39.7423 107.196 40.7563C107.855 41.7703 108.084 43.0047 107.834 44.1878C107.583 45.371 106.872 46.406 105.858 47.0652V47.0652Z" fill="#FF9D23"/>
<path opacity="0.5" d="M109.913 76.1668L75.2705 98.6925C74.2613 99.2111 73.0949 99.3345 71.9995 99.0386C70.9041 98.7427 69.9584 98.0488 69.3476 97.0926C68.7367 96.1363 68.5046 94.9866 68.6966 93.8683C68.8886 92.75 69.4909 91.7435 70.3856 91.0458L104.908 68.5202C105.922 67.8609 107.156 67.6315 108.339 67.8824C109.522 68.1333 110.557 68.8439 111.217 69.8579C111.876 70.8719 112.105 72.1062 111.854 73.2894C111.604 74.4725 110.893 75.5076 109.879 76.1668H109.913Z" fill="#389BF3"/>
<path opacity="0.5" d="M63.6193 106.268L40.455 121.32C39.9529 121.646 39.3915 121.871 38.8027 121.98C38.2139 122.09 37.6094 122.082 37.0235 121.958C36.4377 121.834 35.882 121.595 35.3883 121.256C34.8946 120.917 34.4725 120.484 34.1461 119.982C33.8197 119.48 33.5954 118.919 33.486 118.33C33.3765 117.741 33.3841 117.137 33.5084 116.551C33.7592 115.368 34.4698 114.333 35.4838 113.673L58.6482 98.6217C59.6622 97.9625 60.8965 97.7331 62.0797 97.984C63.2628 98.2348 64.2979 98.9454 64.9571 99.9595C65.6163 100.973 65.8457 102.208 65.5948 103.391C65.344 104.574 64.6333 105.609 63.6193 106.268V106.268Z" fill="#AA7DFF"/>
<path opacity="0.5" d="M120.442 69.3836L120.235 69.5217C119.733 69.8481 119.172 70.0724 118.583 70.1818C117.994 70.2912 117.39 70.2836 116.804 70.1594C116.218 70.0352 115.662 69.7968 115.169 69.4579C114.675 69.1189 114.253 68.686 113.926 68.1839C113.6 67.6819 113.376 67.1204 113.266 66.5316C113.157 65.9428 113.164 65.3383 113.289 64.7524C113.413 64.1666 113.651 63.611 113.99 63.1173C114.329 62.6235 114.762 62.2014 115.264 61.875L115.471 61.7369C115.973 61.4105 116.535 61.1862 117.124 61.0768C117.712 60.9673 118.317 60.975 118.903 61.0992C119.489 61.2234 120.044 61.4618 120.538 61.8007C121.032 62.1397 121.454 62.5726 121.78 63.0747C122.107 63.5767 122.331 64.1382 122.44 64.727C122.55 65.3158 122.542 65.9203 122.418 66.5062C122.294 67.092 122.055 67.6476 121.716 68.1413C121.377 68.6351 120.945 69.0572 120.442 69.3836Z" fill="#FF9D23"/>
<path d="M29.9774 69.3641C32.1523 74.5424 35.5009 79.1339 38.2972 84.0188C41.0935 88.9036 43.4755 94.3754 43.1476 99.9507H75.9435C75.6846 94.3236 77.9803 88.9036 80.7766 84.0188C83.5729 79.1339 86.9215 74.5252 89.1137 69.3641C98.1757 47.8914 84.1943 20.6535 59.5628 21.0332C34.8968 20.6535 20.9499 47.8914 29.9774 69.3641Z" fill="white"/>
<path d="M59.9258 20.7774V99.6948H76.341C76.0821 94.0677 78.3778 88.6478 81.1741 83.7629C83.9704 78.878 87.3363 74.2693 89.5112 69.1083C98.5387 47.6355 84.5918 20.3976 59.9258 20.7774Z" fill="#CEC1BC"/>
<path d="M30.2189 69.8661C32.4111 75.0444 35.7597 79.6358 38.556 84.5207C41.0313 88.5121 42.6534 92.9728 43.3201 97.6218C43.4137 98.4089 43.7953 99.1335 44.3912 99.6561C44.9871 100.179 45.7553 100.462 46.5479 100.453H73.0781C73.8707 100.462 74.6388 100.179 75.2348 99.6561C75.8307 99.1335 76.2122 98.4089 76.3059 97.6218C76.9568 92.9688 78.58 88.505 81.0699 84.5207C83.8662 79.6358 87.2149 75.0444 89.3725 69.8661C98.4 48.3934 84.4531 21.1554 59.7871 21.5352C35.1556 21.1554 21.1914 48.3934 30.2189 69.8661Z" stroke="#732E54" stroke-width="2" stroke-miterlimit="10"/>
<path d="M47.6006 114.363H71.0756V114.881C71.0756 116.423 70.772 117.949 70.1821 119.373C69.5923 120.797 68.7277 122.091 67.6378 123.181C66.5478 124.271 65.2539 125.135 63.8298 125.725C62.4058 126.315 60.8795 126.619 59.3381 126.619V126.619C56.2251 126.619 53.2396 125.382 51.0384 123.181C48.8372 120.98 47.6006 117.994 47.6006 114.881V114.363V114.363Z" fill="url(#paint0_linear)"/>
<path d="M47.9453 114.744H71.4721V115.262C71.4721 116.803 71.1685 118.33 70.5786 119.754C69.9888 121.178 69.1242 122.472 68.0343 123.562C66.9443 124.652 65.6504 125.516 64.2264 126.106C62.8023 126.696 61.276 126.999 59.7346 126.999C58.1889 127.006 56.657 126.708 55.2269 126.121C53.7969 125.534 52.4969 124.671 51.4014 123.58C50.306 122.489 49.4368 121.193 48.8437 119.766C48.2506 118.338 47.9453 116.808 47.9453 115.262V114.744Z" stroke="#732E54" stroke-width="2" stroke-miterlimit="10"/>
<path d="M35.8301 114.695H83.0563" stroke="#732E54" stroke-width="2" stroke-miterlimit="10" stroke-linecap="round"/>
<path d="M44.2178 107.961H72.4568" stroke="#732E54" stroke-width="2" stroke-miterlimit="10" stroke-linecap="round"/>
<path d="M93.2725 29.9231L99.659 26.0566" stroke="#732E54" stroke-width="2" stroke-miterlimit="10" stroke-linecap="round"/>
<path d="M26.7147 29.9231L20.3281 26.0566" stroke="#732E54" stroke-width="2" stroke-miterlimit="10" stroke-linecap="round"/>
<path d="M59.9258 99.6931V85.6426" stroke="#732E54" stroke-width="2" stroke-miterlimit="10" stroke-linecap="round"/>
<path d="M66.0525 76.8203L63.0145 81.0493L59.9766 85.2782L56.9559 81.0493L53.918 76.8203" stroke="#732E54" stroke-width="2" stroke-miterlimit="10" stroke-linecap="round"/>
<path d="M80.0171 67.4648C79.5493 68.7546 78.9718 70.002 78.291 71.1932" stroke="white" stroke-miterlimit="10" stroke-linecap="round"/>
<path opacity="0.3" d="M82.4674 55.9355C82.4144 57.3934 82.2296 58.8435 81.915 60.2681" stroke="white" stroke-miterlimit="10" stroke-linecap="round"/>
<path d="M70.127 31.4766C73.2746 33.1896 76.0178 35.5586 78.1708 38.4233C80.3238 41.2881 81.8366 44.5818 82.6067 48.0817" stroke="white" stroke-miterlimit="10" stroke-linecap="round"/>
<path opacity="0.7" d="M42.9414 33.5146C45.8203 31.3121 49.1506 29.7737 52.6939 29.0094C55.8756 28.3022 59.1644 28.2201 62.3773 28.7678" stroke="white" stroke-miterlimit="10" stroke-linecap="round"/>
<path d="M37.7441 41.3866C39.5832 38.0504 42.1567 35.1759 45.27 32.9805" stroke="white" stroke-width="2" stroke-miterlimit="10" stroke-linecap="round"/>
<path d="M43.6492 72.7483C39.7722 69.5183 36.9565 65.1967 35.5682 60.3453C34.1799 55.4938 34.2831 50.3369 35.8644 45.5449" stroke="white" stroke-width="2" stroke-miterlimit="10" stroke-linecap="round"/>
<defs>
<linearGradient id="paint0_linear" x1="47.6006" y1="120.491" x2="71.0756" y2="120.491" gradientUnits="userSpaceOnUse">
<stop offset="0.04" stop-color="#F27B40"/>
<stop offset="1" stop-color="#EC697D"/>
</linearGradient>
</defs>
</svg>
