<svg width="136" height="124" viewBox="0 0 136 124" fill="none" xmlns="http://www.w3.org/2000/svg">
<path opacity="0.8" d="M103.273 22.7729L64.7282 47.8359C63.6 48.5694 62.2266 48.8246 60.9102 48.5455C59.5937 48.2664 58.4421 47.4757 57.7086 46.3475C56.9752 45.2193 56.7199 43.8459 56.999 42.5294C57.2782 41.213 58.0688 40.0614 59.197 39.3279L97.7422 14.361C98.8704 13.6275 100.244 13.3723 101.56 13.6514C102.877 13.9305 104.028 14.7212 104.762 15.8494C105.495 16.9776 105.75 18.351 105.471 19.6674C105.192 20.9839 104.402 22.1355 103.273 22.8689V22.7729Z" fill="#389BF3"/>
<path opacity="0.8" d="M51.7644 56.2648L25.9909 72.9734C25.4322 73.3366 24.8075 73.5862 24.1524 73.7079C23.4973 73.8297 22.8247 73.8212 22.1728 73.683C21.521 73.5448 20.9028 73.2795 20.3535 72.9024C19.8041 72.5253 19.3345 72.0436 18.9713 71.485C18.6081 70.9264 18.3585 70.3016 18.2368 69.6465C18.115 68.9914 18.1235 68.3188 18.2617 67.667C18.3999 67.0151 18.6652 66.3969 19.0423 65.8476C19.4194 65.2983 19.9011 64.8286 20.4597 64.4654L46.2333 47.7184C46.7919 47.3552 47.4166 47.1056 48.0717 46.9839C48.7268 46.8621 49.3995 46.8706 50.0513 47.0088C50.7032 47.147 51.3214 47.4123 51.8707 47.7894C52.42 48.1665 52.8897 48.6482 53.2528 49.2068C53.616 49.7654 53.8656 50.3901 53.9874 51.0452C54.1091 51.7003 54.1006 52.373 53.9624 53.0248C53.8242 53.6767 53.559 54.2949 53.1818 54.8442C52.8047 55.3935 52.3231 55.8632 51.7644 56.2264V56.2648Z" fill="#FF9D23"/>
<path d="M85.1623 16.8764L46.6364 41.9394C46.0778 42.3026 45.453 42.5522 44.7979 42.6739C44.1428 42.7957 43.4702 42.7872 42.8184 42.649C41.5019 42.3698 40.3503 41.5792 39.6168 40.451C38.8834 39.3227 38.6281 37.9494 38.9072 36.6329C39.1864 35.3165 39.977 34.1649 41.1053 33.4314L79.6312 8.46448C80.1898 8.1013 80.8145 7.85171 81.4696 7.72995C82.1247 7.6082 82.7974 7.61667 83.4492 7.75489C84.101 7.8931 84.7192 8.15834 85.2686 8.53548C85.8179 8.91261 86.2875 9.39425 86.6507 9.95289C87.0139 10.5115 87.2635 11.1362 87.3852 11.7913C87.507 12.4464 87.4985 13.1191 87.3603 13.7709C87.2221 14.4228 86.9569 15.041 86.5797 15.5903C86.2026 16.1396 85.7209 16.6093 85.1623 16.9724V16.8764Z" fill="#AA7DFF"/>
<path d="M33.6534 50.3689L7.87984 67.212C6.73888 67.9455 5.35328 68.1957 4.02785 67.9075C2.70243 67.6194 1.54575 66.8165 0.812272 65.6756C0.0787975 64.5346 -0.171391 63.149 0.116745 61.8236C0.404881 60.4982 1.20774 59.3415 2.3487 58.608L28.1223 41.861C28.6809 41.4978 29.3056 41.2482 29.9607 41.1264C30.6158 41.0047 31.2885 41.0132 31.9403 41.1514C32.5921 41.2896 33.2104 41.5548 33.7597 41.932C34.309 42.3091 34.7786 42.7907 35.1418 43.3494C35.505 43.908 35.7546 44.5327 35.8763 45.1878C35.9981 45.8429 35.9896 46.5156 35.8514 47.1674C35.7132 47.8192 35.448 48.4375 35.0708 48.9868C34.6937 49.5361 34.2121 50.0057 33.6534 50.3689Z" fill="#389BF3"/>
<path d="M96.8011 9.32793L96.5514 9.48157C95.4232 10.215 94.0498 10.4703 92.7334 10.1912C91.417 9.91203 90.2654 9.12139 89.5319 7.99316C88.7984 6.86493 88.5432 5.49154 88.8223 4.17512C89.1014 2.8587 89.8921 1.70708 91.0203 0.973607L91.27 0.819964C92.3982 0.0864898 93.7716 -0.168757 95.088 0.110374C96.4044 0.389506 97.556 1.18015 98.2895 2.30838C99.023 3.4366 99.2782 4.80999 98.9991 6.12642C98.72 7.44284 97.9293 8.59446 96.8011 9.32793Z" fill="#FF9D23"/>
<path opacity="0.5" d="M101.314 41.7081L62.7688 66.7711C61.6397 67.4197 60.3048 67.6108 59.039 67.305C57.7732 66.9993 56.6728 66.22 55.9641 65.1275C55.2555 64.035 54.9926 62.7124 55.2295 61.432C55.4664 60.1515 56.1851 59.0106 57.2377 58.2439L95.7828 33.277C96.911 32.5435 98.2844 32.2883 99.6009 32.5674C100.917 32.8465 102.069 33.6372 102.802 34.7654C103.536 35.8936 103.791 37.267 103.512 38.5834C103.233 39.8999 102.442 41.0515 101.314 41.785V41.7081Z" fill="#389BF3"/>
<path opacity="0.5" d="M49.8045 75.2034L24.0309 91.9504C22.9027 92.6839 21.5293 92.9391 20.2129 92.66C18.8965 92.3809 17.7448 91.5902 17.0114 90.462C16.2779 89.3338 16.0226 87.9604 16.3018 86.644C16.5809 85.3276 17.3716 84.1759 18.4998 83.4425L44.2157 66.6762C45.3449 66.0276 46.6798 65.8365 47.9455 66.1423C49.2113 66.448 50.3118 67.2273 51.0204 68.3198C51.7291 69.4123 51.992 70.7349 51.7551 72.0153C51.5182 73.2958 50.7995 74.4367 49.7469 75.2034H49.8045Z" fill="#AA7DFF"/>
<path opacity="0.5" d="M112.933 34.1628L112.702 34.3164C111.573 34.965 110.238 35.1561 108.973 34.8504C107.707 34.5446 106.606 33.7653 105.898 32.6728C105.189 31.5803 104.926 30.2578 105.163 28.9773C105.4 27.6969 106.119 26.5559 107.171 25.7893L107.402 25.6356C107.961 25.2285 108.597 24.9396 109.271 24.7865C109.945 24.6334 110.644 24.6193 111.324 24.7451C112.004 24.8709 112.651 25.1339 113.226 25.5182C113.801 25.9024 114.292 26.3998 114.668 26.98C115.044 27.5601 115.298 28.2109 115.415 28.8925C115.531 29.5741 115.508 30.2723 115.345 30.9445C115.183 31.6167 114.885 32.2487 114.47 32.8021C114.056 33.3554 113.533 33.8184 112.933 34.1628Z" fill="#FF9D23"/>
<path d="M32.6357 114.669L106.692 80.4453" stroke="#732E54" stroke-width="2" stroke-miterlimit="10" stroke-linecap="round"/>
<path d="M87.2938 40.6309H65.0732V114.341H87.2938V40.6309Z" fill="white"/>
<path d="M121.634 11.9961H99.375V121.371H121.634V11.9961Z" fill="url(#paint0_linear)"/>
<path d="M122.766 13.3809H98.0107V122.755H122.766V13.3809Z" stroke="#732E54" stroke-width="2" stroke-miterlimit="10"/>
<path d="M87.3514 44.1094H65.1309V120.931H87.3514V44.1094Z" fill="url(#paint1_linear)"/>
<path d="M88.4656 42.3613H63.71V122.755H88.4656V42.3613Z" stroke="#732E54" stroke-width="2" stroke-miterlimit="10"/>
<path d="M52.5904 71.8203H30.2354V122.33H52.5904V71.8203Z" fill="url(#paint2_linear)"/>
<path d="M54.1844 72.2266H29.4287V122.737H54.1844V72.2266Z" stroke="#732E54" stroke-width="2" stroke-miterlimit="10"/>
<path d="M121.806 27.1694C128.489 27.1694 133.906 21.7524 133.906 15.0701C133.906 8.38777 128.489 2.9707 121.806 2.9707C115.124 2.9707 109.707 8.38777 109.707 15.0701C109.707 21.7524 115.124 27.1694 121.806 27.1694Z" fill="white"/>
<path fill-rule="evenodd" clip-rule="evenodd" d="M134.271 15.4745C134.336 17.1027 134.071 18.7273 133.493 20.2507C132.915 21.7741 132.035 23.165 130.906 24.3399C129.777 25.5149 128.422 26.4496 126.923 27.0882C125.424 27.7267 123.811 28.0559 122.181 28.0559C120.552 28.0559 118.939 27.7267 117.44 27.0882C115.941 26.4496 114.586 25.5149 113.457 24.3399C112.328 23.165 111.448 21.7741 110.87 20.2507C110.291 18.7273 110.027 17.1027 110.092 15.4745C110.085 14.4227 110.227 13.3753 110.514 12.3633C111.204 14.9355 112.723 17.2082 114.836 18.8292C116.949 20.4501 119.538 21.3287 122.201 21.3287C124.864 21.3287 127.452 20.4501 129.565 18.8292C131.678 17.2082 133.197 14.9355 133.887 12.3633C134.142 13.3807 134.271 14.4256 134.271 15.4745Z" fill="#CEC1BC"/>
<path d="M122.901 28.2827C129.583 28.2827 135 22.8656 135 16.1834C135 9.50106 129.583 4.08398 122.901 4.08398C116.219 4.08398 110.802 9.50106 110.802 16.1834C110.802 22.8656 116.219 28.2827 122.901 28.2827Z" stroke="#732E54" stroke-width="2" stroke-miterlimit="10"/>
<path d="M30.9656 83.5972C37.6479 83.5972 43.0649 78.1801 43.0649 71.4978C43.0649 64.8155 37.6479 59.3984 30.9656 59.3984C24.2833 59.3984 18.8662 64.8155 18.8662 71.4978C18.8662 78.1801 24.2833 83.5972 30.9656 83.5972Z" fill="white"/>
<path fill-rule="evenodd" clip-rule="evenodd" d="M43.4474 71.8984C43.4474 75.1073 42.1726 78.1848 39.9035 80.4539C37.6345 82.723 34.5569 83.9977 31.348 83.9977C28.139 83.9977 25.0615 82.723 22.7924 80.4539C20.5234 78.1848 19.2486 75.1073 19.2486 71.8984C19.2376 70.8449 19.3865 69.7959 19.6903 68.7871C20.3732 71.3629 21.8885 73.6407 24.0005 75.2657C26.1124 76.8908 28.7024 77.7719 31.3672 77.7719C34.032 77.7719 36.622 76.8908 38.7339 75.2657C40.8459 73.6407 42.3612 71.3629 43.044 68.7871C43.3162 69.8016 43.4519 70.848 43.4474 71.8984Z" fill="#CEC1BC"/>
<path d="M32.0789 84.689C38.7612 84.689 44.1782 79.2719 44.1782 72.5896C44.1782 65.9073 38.7612 60.4902 32.0789 60.4902C25.3966 60.4902 19.9795 65.9073 19.9795 72.5896C19.9795 79.2719 25.3966 84.689 32.0789 84.689Z" stroke="#732E54" stroke-width="2" stroke-miterlimit="10"/>
<path opacity="0.3" d="M112.855 115.994H114.718" stroke="white" stroke-miterlimit="10" stroke-linecap="round"/>
<path d="M104.598 104.377V115.996H108.804" stroke="white" stroke-miterlimit="10" stroke-linecap="round"/>
<path opacity="0.6" d="M104.598 95.9258V98.1536" stroke="white" stroke-miterlimit="10" stroke-linecap="round"/>
<path d="M104.598 83.7305V89.8954" stroke="white" stroke-miterlimit="10" stroke-linecap="round"/>
<defs>
<linearGradient id="paint0_linear" x1="99.375" y1="66.6929" x2="121.634" y2="66.6929" gradientUnits="userSpaceOnUse">
<stop offset="0.04" stop-color="#F27B40"/>
<stop offset="1" stop-color="#EC697D"/>
</linearGradient>
<linearGradient id="paint1_linear" x1="818.186" y1="3345.12" x2="1075.28" y2="3345.12" gradientUnits="userSpaceOnUse">
<stop offset="0.04" stop-color="#F27B40"/>
<stop offset="1" stop-color="#EC697D"/>
</linearGradient>
<linearGradient id="paint2_linear" x1="381.656" y1="2625.1" x2="641.869" y2="2625.1" gradientUnits="userSpaceOnUse">
<stop offset="0.04" stop-color="#F27B40"/>
<stop offset="1" stop-color="#EC697D"/>
</linearGradient>
</defs>
</svg>
